<!--?xml version="1.0" standalone="no"?-->
              <svg id="sw-js-blob-svg" viewBox="0 0 100 100" xmlns="http://www.w3.org/2000/svg" version="1.1">
                    <defs> 
                        <linearGradient id="sw-gradient" x1="0" x2="1" y1="1" y2="0">
                            <stop id="stop1" stop-color="rgba(231, 255, 239, 1)" offset="0%"></stop>
                            <stop id="stop2" stop-color="rgba(231, 255, 239, 1)" offset="100%"></stop>
                        </linearGradient>
                    </defs>
                <path fill="url(#sw-gradient)" d="M15,-23.5C21.7,-22.1,30.9,-22.6,36.4,-19C42,-15.4,43.8,-7.7,43.4,-0.3C43,7.2,40.2,14.4,36,20.4C31.9,26.5,26.4,31.4,20.2,33.7C14,36,7,35.7,0.9,34.1C-5.1,32.4,-10.2,29.4,-15.7,26.7C-21.3,24,-27.3,21.6,-28.7,17.2C-30.2,12.8,-27.1,6.4,-25.9,0.7C-24.7,-5,-25.3,-10,-24.2,-15C-23.1,-20.1,-20.3,-25.2,-16,-28C-11.7,-30.8,-5.8,-31.3,-0.8,-29.8C4.2,-28.4,8.3,-25,15,-23.5Z" width="100%" height="100%" transform="translate(50 50)" stroke-width="0" style="transition: all 0.3s ease 0s;" stroke="url(#sw-gradient)"></path>
              </svg>