<svg id="visual" viewBox="0 0 900 600" width="900" height="600" xmlns="http://www.w3.org/2000/svg" xmlns:xlink="http://www.w3.org/1999/xlink" version="1.1"><rect x="0" y="0" width="900" height="600" fill="#ffffff"></rect><path d="M0 151L129 211L257 238L386 237L514 186L643 232L771 247L900 176L900 0L771 0L643 0L514 0L386 0L257 0L129 0L0 0Z" fill="#25ba57"></path><path d="M0 124L129 125L257 142L386 130L514 202L643 159L771 144L900 141L900 0L771 0L643 0L514 0L386 0L257 0L129 0L0 0Z" fill="#6fcc80"></path><path d="M0 132L129 144L257 89L386 148L514 118L643 99L771 109L900 131L900 0L771 0L643 0L514 0L386 0L257 0L129 0L0 0Z" fill="#a2deaa"></path><path d="M0 111L129 64L257 78L386 78L514 106L643 65L771 75L900 114L900 0L771 0L643 0L514 0L386 0L257 0L129 0L0 0Z" fill="#d1efd4"></path><path d="M0 42L129 40L257 64L386 39L514 73L643 73L771 68L900 39L900 0L771 0L643 0L514 0L386 0L257 0L129 0L0 0Z" fill="#ffffff"></path></svg>