<svg id="visual" viewBox="0 0 900 600" width="900" height="600" xmlns="http://www.w3.org/2000/svg" xmlns:xlink="http://www.w3.org/1999/xlink" version="1.1"><rect x="0" y="0" width="900" height="600" fill="#ffffff"></rect><path d="M0 143L21.5 143.3C43 143.7 86 144.3 128.8 138.8C171.7 133.3 214.3 121.7 257.2 110.8C300 100 343 90 385.8 91.2C428.7 92.3 471.3 104.7 514.2 126.2C557 147.7 600 178.3 642.8 186.8C685.7 195.3 728.3 181.7 771.2 180.5C814 179.3 857 190.7 878.5 196.3L900 202L900 0L878.5 0C857 0 814 0 771.2 0C728.3 0 685.7 0 642.8 0C600 0 557 0 514.2 0C471.3 0 428.7 0 385.8 0C343 0 300 0 257.2 0C214.3 0 171.7 0 128.8 0C86 0 43 0 21.5 0L0 0Z" fill="#ffffff" stroke-linecap="round" stroke-linejoin="miter"></path></svg>