<svg id="visual" viewBox="0 0 900 600" width="900" height="600" xmlns="http://www.w3.org/2000/svg" xmlns:xlink="http://www.w3.org/1999/xlink" version="1.1"><rect x="0" y="0" width="900" height="600" fill="#002233"></rect><path d="M0 89L21.5 103.3C43 117.7 86 146.3 128.8 163.7C171.7 181 214.3 187 257.2 172.7C300 158.3 343 123.7 385.8 127.7C428.7 131.7 471.3 174.3 514.2 194C557 213.7 600 210.3 642.8 200.3C685.7 190.3 728.3 173.7 771.2 172C814 170.3 857 183.7 878.5 190.3L900 197L900 0L878.5 0C857 0 814 0 771.2 0C728.3 0 685.7 0 642.8 0C600 0 557 0 514.2 0C471.3 0 428.7 0 385.8 0C343 0 300 0 257.2 0C214.3 0 171.7 0 128.8 0C86 0 43 0 21.5 0L0 0Z" fill="#0066FF" stroke-linecap="round" stroke-linejoin="miter"></path></svg>