<svg id="visual" viewBox="0 0 900 600" width="900" height="600" xmlns="http://www.w3.org/2000/svg" xmlns:xlink="http://www.w3.org/1999/xlink" version="1.1"><rect x="0" y="0" width="900" height="600" fill="#ffffff"></rect><g fill="none" stroke="#25ba57" stroke-width="2"><circle r="12" cx="421" cy="486"></circle><circle r="2" cx="167" cy="525"></circle><circle r="10" cx="576" cy="401"></circle><circle r="1" cx="866" cy="374"></circle><circle r="9" cx="813" cy="287"></circle><circle r="4" cx="541" cy="87"></circle><circle r="3" cx="317" cy="271"></circle><circle r="7" cx="171" cy="328"></circle><circle r="8" cx="144" cy="383"></circle><circle r="2" cx="705" cy="257"></circle><circle r="7" cx="412" cy="583"></circle><circle r="7" cx="492" cy="84"></circle><circle r="5" cx="188" cy="113"></circle><circle r="10" cx="653" cy="102"></circle><circle r="5" cx="594" cy="503"></circle><circle r="5" cx="559" cy="509"></circle><circle r="2" cx="149" cy="465"></circle><circle r="9" cx="760" cy="249"></circle><circle r="8" cx="502" cy="144"></circle><circle r="6" cx="734" cy="385"></circle><circle r="3" cx="746" cy="85"></circle><circle r="6" cx="212" cy="37"></circle><circle r="1" cx="803" cy="87"></circle><circle r="1" cx="291" cy="304"></circle><circle r="3" cx="464" cy="393"></circle><circle r="2" cx="73" cy="46"></circle><circle r="3" cx="576" cy="47"></circle><circle r="9" cx="777" cy="483"></circle><circle r="10" cx="111" cy="178"></circle><circle r="9" cx="586" cy="170"></circle><circle r="7" cx="507" cy="259"></circle><circle r="6" cx="430" cy="266"></circle><circle r="1" cx="471" cy="40"></circle><circle r="4" cx="22" cy="310"></circle><circle r="8" cx="38" cy="439"></circle><circle r="9" cx="692" cy="283"></circle><circle r="5" cx="599" cy="358"></circle><circle r="8" cx="59" cy="74"></circle><circle r="8" cx="555" cy="204"></circle><circle r="1" cx="588" cy="311"></circle><circle r="9" cx="837" cy="385"></circle><circle r="9" cx="768" cy="147"></circle><circle r="10" cx="639" cy="146"></circle><circle r="8" cx="751" cy="323"></circle><circle r="5" cx="44" cy="502"></circle><circle r="2" cx="865" cy="170"></circle><circle r="7" cx="444" cy="70"></circle><circle r="7" cx="394" cy="121"></circle><circle r="5" cx="727" cy="201"></circle><circle r="10" cx="684" cy="375"></circle><circle r="3" cx="767" cy="177"></circle><circle r="1" cx="18" cy="558"></circle><circle r="6" cx="494" cy="430"></circle><circle r="7" cx="237" cy="492"></circle><circle r="8" cx="610" cy="58"></circle><circle r="7" cx="178" cy="381"></circle><circle r="3" cx="449" cy="133"></circle><circle r="1" cx="484" cy="532"></circle><circle r="5" cx="574" cy="118"></circle><circle r="10" cx="245" cy="467"></circle><circle r="2" cx="356" cy="70"></circle><circle r="5" cx="719" cy="338"></circle><circle r="6" cx="583" cy="558"></circle><circle r="2" cx="876" cy="88"></circle><circle r="3" cx="670" cy="68"></circle><circle r="7" cx="428" cy="342"></circle><circle r="9" cx="407" cy="16"></circle><circle r="6" cx="65" cy="168"></circle><circle r="7" cx="440" cy="317"></circle><circle r="4" cx="595" cy="206"></circle><circle r="10" cx="374" cy="488"></circle><circle r="1" cx="621" cy="530"></circle><circle r="2" cx="152" cy="40"></circle><circle r="9" cx="179" cy="423"></circle><circle r="3" cx="661" cy="505"></circle><circle r="2" cx="47" cy="210"></circle><circle r="10" cx="309" cy="364"></circle><circle r="6" cx="642" cy="210"></circle><circle r="9" cx="801" cy="378"></circle><circle r="5" cx="793" cy="520"></circle><circle r="8" cx="204" cy="552"></circle><circle r="10" cx="371" cy="387"></circle><circle r="4" cx="821" cy="410"></circle><circle r="6" cx="437" cy="376"></circle><circle r="7" cx="507" cy="312"></circle><circle r="7" cx="154" cy="83"></circle><circle r="6" cx="60" cy="404"></circle><circle r="3" cx="524" cy="193"></circle><circle r="4" cx="857" cy="403"></circle><circle r="2" cx="293" cy="124"></circle><circle r="4" cx="376" cy="270"></circle><circle r="7" cx="651" cy="457"></circle><circle r="5" cx="276" cy="254"></circle><circle r="2" cx="326" cy="113"></circle><circle r="3" cx="785" cy="111"></circle><circle r="4" cx="738" cy="417"></circle><circle r="2" cx="70" cy="269"></circle><circle r="2" cx="353" cy="523"></circle><circle r="7" cx="787" cy="204"></circle><circle r="6" cx="429" cy="551"></circle><circle r="10" cx="243" cy="274"></circle><circle r="10" cx="147" cy="562"></circle><circle r="9" cx="127" cy="325"></circle><circle r="1" cx="361" cy="104"></circle><circle r="6" cx="127" cy="489"></circle><circle r="2" cx="87" cy="70"></circle><circle r="7" cx="547" cy="478"></circle><circle r="4" cx="287" cy="160"></circle><circle r="1" cx="725" cy="465"></circle><circle r="8" cx="307" cy="493"></circle><circle r="2" cx="270" cy="458"></circle><circle r="1" cx="306" cy="410"></circle><circle r="7" cx="537" cy="139"></circle><circle r="2" cx="818" cy="343"></circle><circle r="2" cx="358" cy="429"></circle><circle r="3" cx="639" cy="31"></circle><circle r="7" cx="33" cy="125"></circle><circle r="8" cx="705" cy="140"></circle><circle r="2" cx="555" cy="550"></circle><circle r="3" cx="389" cy="307"></circle><circle r="5" cx="229" cy="358"></circle><circle r="3" cx="363" cy="15"></circle><circle r="6" cx="194" cy="492"></circle><circle r="4" cx="468" cy="423"></circle><circle r="5" cx="58" cy="303"></circle><circle r="4" cx="258" cy="154"></circle><circle r="5" cx="572" cy="280"></circle><circle r="5" cx="325" cy="306"></circle><circle r="4" cx="729" cy="22"></circle><circle r="6" cx="253" cy="399"></circle><circle r="5" cx="546" cy="290"></circle><circle r="9" cx="416" cy="418"></circle><circle r="2" cx="846" cy="441"></circle><circle r="8" cx="529" cy="525"></circle><circle r="10" cx="745" cy="282"></circle><circle r="8" cx="472" cy="264"></circle><circle r="4" cx="560" cy="312"></circle><circle r="4" cx="762" cy="448"></circle><circle r="1" cx="144" cy="234"></circle><circle r="9" cx="340" cy="251"></circle><circle r="2" cx="685" cy="28"></circle><circle r="2" cx="358" cy="575"></circle><circle r="6" cx="161" cy="158"></circle><circle r="7" cx="667" cy="532"></circle><circle r="2" cx="48" cy="350"></circle><circle r="8" cx="280" cy="379"></circle><circle r="7" cx="278" cy="418"></circle><circle r="8" cx="757" cy="547"></circle><circle r="5" cx="311" cy="537"></circle><circle r="5" cx="466" cy="470"></circle><circle r="9" cx="84" cy="426"></circle><circle r="7" cx="791" cy="422"></circle><circle r="1" cx="77" cy="561"></circle><circle r="1" cx="212" cy="195"></circle><circle r="6" cx="201" cy="465"></circle><circle r="2" cx="673" cy="431"></circle><circle r="4" cx="36" cy="24"></circle><circle r="6" cx="781" cy="19"></circle><circle r="1" cx="181" cy="179"></circle><circle r="5" cx="864" cy="325"></circle><circle r="7" cx="333" cy="160"></circle><circle r="7" cx="401" cy="240"></circle><circle r="7" cx="710" cy="106"></circle><circle r="9" cx="582" cy="456"></circle><circle r="2" cx="635" cy="281"></circle><circle r="9" cx="612" cy="263"></circle><circle r="1" cx="348" cy="347"></circle><circle r="1" cx="805" cy="149"></circle><circle r="4" cx="514" cy="482"></circle><circle r="6" cx="683" cy="582"></circle><circle r="4" cx="610" cy="331"></circle><circle r="6" cx="586" cy="72"></circle><circle r="8" cx="699" cy="496"></circle><circle r="1" cx="883" cy="472"></circle><circle r="3" cx="401" cy="503"></circle><circle r="9" cx="394" cy="468"></circle><circle r="8" cx="470" cy="340"></circle><circle r="9" cx="708" cy="563"></circle><circle r="8" cx="673" cy="305"></circle><circle r="9" cx="35" cy="238"></circle><circle r="4" cx="862" cy="211"></circle><circle r="2" cx="617" cy="457"></circle><circle r="4" cx="216" cy="148"></circle><circle r="9" cx="811" cy="459"></circle><circle r="8" cx="284" cy="60"></circle><circle r="4" cx="507" cy="28"></circle><circle r="4" cx="430" cy="514"></circle><circle r="8" cx="850" cy="27"></circle><circle r="4" cx="765" cy="388"></circle><circle r="2" cx="460" cy="212"></circle><circle r="2" cx="884" cy="570"></circle><circle r="10" cx="864" cy="255"></circle><circle r="5" cx="561" cy="247"></circle><circle r="10" cx="853" cy="110"></circle><circle r="8" cx="527" cy="113"></circle><circle r="10" cx="214" cy="240"></circle><circle r="3" cx="656" cy="182"></circle><circle r="2" cx="240" cy="567"></circle><circle r="6" cx="262" cy="586"></circle><circle r="1" cx="635" cy="76"></circle><circle r="1" cx="273" cy="492"></circle><circle r="6" cx="89" cy="299"></circle><circle r="4" cx="534" cy="382"></circle><circle r="1" cx="724" cy="306"></circle><circle r="2" cx="161" cy="271"></circle><circle r="2" cx="40" cy="537"></circle><circle r="1" cx="539" cy="581"></circle><circle r="10" cx="697" cy="210"></circle><circle r="4" cx="28" cy="405"></circle><circle r="2" cx="114" cy="218"></circle><circle r="10" cx="239" cy="63"></circle><circle r="3" cx="147" cy="432"></circle><circle r="4" cx="610" cy="97"></circle><circle r="5" cx="312" cy="338"></circle><circle r="1" cx="17" cy="343"></circle><circle r="4" cx="799" cy="546"></circle><circle r="7" cx="113" cy="90"></circle><circle r="6" cx="789" cy="352"></circle><circle r="10" cx="777" cy="568"></circle><circle r="4" cx="481" cy="570"></circle><circle r="9" cx="116" cy="583"></circle><circle r="7" cx="305" cy="202"></circle><circle r="1" cx="309" cy="456"></circle><circle r="9" cx="857" cy="556"></circle><circle r="2" cx="244" cy="224"></circle><circle r="7" cx="491" cy="111"></circle><circle r="8" cx="206" cy="86"></circle><circle r="9" cx="428" cy="206"></circle><circle r="2" cx="714" cy="405"></circle><circle r="3" cx="416" cy="183"></circle><circle r="10" cx="137" cy="300"></circle><circle r="5" cx="57" cy="109"></circle><circle r="2" cx="314" cy="571"></circle><circle r="9" cx="17" cy="515"></circle><circle r="6" cx="881" cy="38"></circle><circle r="7" cx="616" cy="168"></circle><circle r="5" cx="346" cy="456"></circle><circle r="10" cx="252" cy="22"></circle><circle r="5" cx="521" cy="52"></circle><circle r="9" cx="500" cy="384"></circle><circle r="7" cx="118" cy="361"></circle><circle r="6" cx="115" cy="31"></circle><circle r="8" cx="100" cy="521"></circle><circle r="1" cx="282" cy="16"></circle><circle r="7" cx="683" cy="239"></circle><circle r="7" cx="694" cy="452"></circle><circle r="7" cx="146" cy="112"></circle><circle r="6" cx="819" cy="43"></circle><circle r="7" cx="713" cy="530"></circle><circle r="9" cx="851" cy="487"></circle><circle r="6" cx="209" cy="375"></circle><circle r="8" cx="184" cy="248"></circle><circle r="8" cx="384" cy="75"></circle><circle r="2" cx="647" cy="397"></circle><circle r="8" cx="546" cy="409"></circle><circle r="4" cx="801" cy="244"></circle><circle r="2" cx="270" cy="223"></circle><circle r="1" cx="169" cy="297"></circle><circle r="5" cx="398" cy="352"></circle><circle r="2" cx="761" cy="516"></circle><circle r="10" cx="84" cy="104"></circle><circle r="10" cx="111" cy="128"></circle><circle r="10" cx="880" cy="192"></circle><circle r="7" cx="87" cy="242"></circle><circle r="2" cx="698" cy="67"></circle><circle r="8" cx="737" cy="568"></circle><circle r="5" cx="353" cy="223"></circle><circle r="2" cx="677" cy="342"></circle><circle r="10" cx="563" cy="367"></circle><circle r="7" cx="360" cy="130"></circle><circle r="6" cx="176" cy="214"></circle><circle r="8" cx="625" cy="363"></circle><circle r="4" cx="401" cy="541"></circle><circle r="9" cx="856" cy="283"></circle><circle r="8" cx="773" cy="288"></circle><circle r="1" cx="175" cy="456"></circle><circle r="1" cx="131" cy="149"></circle><circle r="7" cx="543" cy="169"></circle><circle r="3" cx="683" cy="177"></circle><circle r="9" cx="253" cy="311"></circle><circle r="10" cx="114" cy="465"></circle><circle r="5" cx="462" cy="108"></circle><circle r="7" cx="176" cy="567"></circle><circle r="1" cx="333" cy="15"></circle><circle r="9" cx="16" cy="56"></circle><circle r="1" cx="467" cy="178"></circle><circle r="4" cx="314" cy="235"></circle><circle r="5" cx="830" cy="570"></circle><circle r="3" cx="722" cy="163"></circle><circle r="8" cx="18" cy="196"></circle><circle r="9" cx="555" cy="444"></circle><circle r="3" cx="62" cy="461"></circle><circle r="1" cx="450" cy="571"></circle><circle r="9" cx="17" cy="168"></circle><circle r="9" cx="732" cy="251"></circle><circle r="3" cx="32" cy="473"></circle><circle r="9" cx="87" cy="384"></circle><circle r="2" cx="239" cy="436"></circle><circle r="10" cx="885" cy="120"></circle><circle r="6" cx="277" cy="196"></circle><circle r="8" cx="386" cy="436"></circle><circle r="2" cx="760" cy="57"></circle><circle r="3" cx="610" cy="28"></circle><circle r="6" cx="832" cy="262"></circle><circle r="8" cx="533" cy="14"></circle><circle r="5" cx="310" cy="86"></circle><circle r="10" cx="756" cy="353"></circle><circle r="3" cx="143" cy="198"></circle><circle r="9" cx="641" cy="548"></circle><circle r="4" cx="624" cy="418"></circle><circle r="3" cx="335" cy="481"></circle><circle r="10" cx="243" cy="198"></circle><circle r="2" cx="269" cy="348"></circle><circle r="3" cx="264" cy="94"></circle><circle r="7" cx="819" cy="195"></circle><circle r="6" cx="407" cy="384"></circle><circle r="1" cx="326" cy="59"></circle><circle r="1" cx="89" cy="201"></circle><circle r="3" cx="256" cy="517"></circle><circle r="8" cx="759" cy="216"></circle><circle r="4" cx="88" cy="477"></circle><circle r="2" cx="602" cy="388"></circle><circle r="4" cx="238" cy="100"></circle><circle r="3" cx="449" cy="534"></circle><circle r="10" cx="396" cy="151"></circle><circle r="1" cx="741" cy="487"></circle><circle r="7" cx="683" cy="100"></circle><circle r="7" cx="491" cy="359"></circle><circle r="4" cx="343" cy="391"></circle><circle r="1" cx="598" cy="241"></circle><circle r="6" cx="512" cy="551"></circle><circle r="5" cx="14" cy="376"></circle><circle r="8" cx="424" cy="42"></circle><circle r="4" cx="385" cy="45"></circle><circle r="8" cx="127" cy="410"></circle><circle r="5" cx="647" cy="240"></circle><circle r="6" cx="867" cy="512"></circle><circle r="8" cx="453" cy="16"></circle><circle r="1" cx="38" cy="270"></circle><circle r="9" cx="864" cy="140"></circle><circle r="5" cx="429" cy="239"></circle><circle r="5" cx="348" cy="193"></circle><circle r="2" cx="485" cy="227"></circle><circle r="9" cx="94" cy="157"></circle><circle r="5" cx="833" cy="538"></circle><circle r="4" cx="337" cy="547"></circle><circle r="7" cx="204" cy="401"></circle><circle r="1" cx="409" cy="283"></circle><circle r="1" cx="79" cy="339"></circle><circle r="3" cx="826" cy="126"></circle><circle r="3" cx="519" cy="413"></circle><circle r="9" cx="613" cy="565"></circle><circle r="4" cx="410" cy="87"></circle><circle r="6" cx="633" cy="495"></circle><circle r="8" cx="370" cy="167"></circle><circle r="7" cx="722" cy="50"></circle><circle r="10" cx="349" cy="276"></circle><circle r="2" cx="284" cy="545"></circle><circle r="9" cx="114" cy="58"></circle><circle r="2" cx="819" cy="313"></circle><circle r="1" cx="558" cy="339"></circle><circle r="8" cx="259" cy="124"></circle><circle r="10" cx="642" cy="320"></circle><circle r="8" cx="332" cy="416"></circle><circle r="10" cx="597" cy="434"></circle><circle r="2" cx="820" cy="506"></circle><circle r="4" cx="530" cy="453"></circle><circle r="8" cx="213" cy="289"></circle><circle r="8" cx="190" cy="53"></circle><circle r="8" cx="473" cy="310"></circle><circle r="1" cx="523" cy="337"></circle><circle r="7" cx="836" cy="74"></circle><circle r="9" cx="372" cy="357"></circle><circle r="9" cx="740" cy="141"></circle><circle r="10" cx="418" cy="454"></circle><circle r="7" cx="122" cy="541"></circle><circle r="6" cx="804" cy="485"></circle><circle r="4" cx="517" cy="231"></circle><circle r="7" cx="363" cy="300"></circle><circle r="9" cx="474" cy="501"></circle><circle r="3" cx="831" cy="168"></circle><circle r="6" cx="503" cy="175"></circle><circle r="1" cx="77" cy="130"></circle><circle r="6" cx="432" cy="107"></circle><circle r="5" cx="569" cy="15"></circle><circle r="10" cx="651" cy="579"></circle><circle r="9" cx="23" cy="98"></circle><circle r="3" cx="209" cy="440"></circle><circle r="8" cx="109" cy="273"></circle><circle r="3" cx="500" cy="284"></circle><circle r="3" cx="165" cy="17"></circle><circle r="3" cx="189" cy="352"></circle><circle r="1" cx="842" cy="356"></circle><circle r="5" cx="221" cy="524"></circle><circle r="8" cx="668" cy="125"></circle><circle r="6" cx="776" cy="79"></circle><circle r="2" cx="383" cy="586"></circle><circle r="7" cx="270" cy="280"></circle><circle r="3" cx="425" cy="145"></circle><circle r="1" cx="47" cy="564"></circle><circle r="7" cx="885" cy="392"></circle><circle r="10" cx="677" cy="477"></circle><circle r="9" cx="357" cy="41"></circle><circle r="4" cx="141" cy="517"></circle><circle r="4" cx="737" cy="109"></circle><circle r="2" cx="210" cy="333"></circle><circle r="3" cx="567" cy="145"></circle><circle r="6" cx="781" cy="317"></circle><circle r="9" cx="73" cy="18"></circle><circle r="4" cx="587" cy="531"></circle><circle r="9" cx="401" cy="205"></circle><circle r="5" cx="67" cy="519"></circle><circle r="10" cx="835" cy="219"></circle><circle r="10" cx="883" cy="233"></circle><circle r="1" cx="159" cy="359"></circle><circle r="8" cx="453" cy="284"></circle><circle r="5" cx="506" cy="509"></circle><circle r="9" cx="884" cy="281"></circle><circle r="5" cx="619" cy="224"></circle><circle r="9" cx="482" cy="14"></circle><circle r="10" cx="448" cy="492"></circle><circle r="7" cx="674" cy="404"></circle><circle r="4" cx="29" cy="584"></circle><circle r="1" cx="718" cy="228"></circle><circle r="10" cx="493" cy="461"></circle><circle r="6" cx="443" cy="442"></circle><circle r="5" cx="862" cy="59"></circle><circle r="3" cx="443" cy="410"></circle><circle r="2" cx="534" cy="252"></circle><circle r="9" cx="54" cy="144"></circle><circle r="2" cx="550" cy="43"></circle><circle r="7" cx="671" cy="154"></circle><circle r="1" cx="494" cy="55"></circle><circle r="2" cx="370" cy="547"></circle><circle r="6" cx="195" cy="309"></circle><circle r="4" cx="619" cy="129"></circle><circle r="3" cx="789" cy="50"></circle><circle r="3" cx="825" cy="17"></circle><circle r="7" cx="884" cy="422"></circle><circle r="6" cx="651" cy="353"></circle><circle r="7" cx="194" cy="525"></circle><circle r="9" cx="510" cy="586"></circle><circle r="3" cx="698" cy="318"></circle><circle r="8" cx="372" cy="243"></circle><circle r="3" cx="712" cy="368"></circle><circle r="3" cx="135" cy="260"></circle><circle r="5" cx="367" cy="327"></circle><circle r="8" cx="592" cy="583"></circle><circle r="10" cx="805" cy="583"></circle><circle r="10" cx="41" cy="379"></circle><circle r="1" cx="595" cy="139"></circle><circle r="6" cx="614" cy="300"></circle><circle r="3" cx="161" cy="499"></circle><circle r="2" cx="208" cy="586"></circle><circle r="3" cx="857" cy="585"></circle><circle r="9" cx="46" cy="50"></circle><circle r="6" cx="668" cy="266"></circle><circle r="10" cx="306" cy="27"></circle><circle r="4" cx="292" cy="515"></circle><circle r="10" cx="472" cy="152"></circle><circle r="2" cx="881" cy="536"></circle><circle r="10" cx="116" cy="435"></circle><circle r="8" cx="756" cy="31"></circle><circle r="7" cx="330" cy="508"></circle><circle r="2" cx="671" cy="214"></circle><circle r="1" cx="187" cy="151"></circle><circle r="9" cx="735" cy="514"></circle><circle r="3" cx="158" cy="406"></circle><circle r="8" cx="391" cy="409"></circle><circle r="3" cx="885" cy="308"></circle><circle r="5" cx="880" cy="352"></circle><circle r="10" cx="224" cy="122"></circle><circle r="9" cx="254" cy="544"></circle><circle r="1" cx="290" cy="586"></circle><circle r="5" cx="85" cy="586"></circle><circle r="9" cx="457" cy="242"></circle><circle r="1" cx="793" cy="173"></circle><circle r="6" cx="494" cy="200"></circle><circle r="9" cx="192" cy="14"></circle><circle r="3" cx="191" cy="273"></circle><circle r="8" cx="14" cy="452"></circle><circle r="4" cx="234" cy="171"></circle><circle r="3" cx="375" cy="200"></circle><circle r="7" cx="716" cy="436"></circle><circle r="9" cx="441" cy="170"></circle><circle r="2" cx="138" cy="17"></circle><circle r="3" cx="873" cy="446"></circle><circle r="5" cx="683" cy="554"></circle><circle r="6" cx="565" cy="578"></circle><circle r="1" cx="42" cy="180"></circle><circle r="9" cx="61" cy="239"></circle></g></svg>